<svg version="1.1" viewBox="0.0 0.0 960.0 275.5196850393701" fill="none" stroke="none" stroke-linecap="square" stroke-miterlimit="10" xmlns:xlink="http://www.w3.org/1999/xlink" xmlns="http://www.w3.org/2000/svg"><clipPath id="p.0"><path d="m0 0l960.0 0l0 275.51968l-960.0 0l0 -275.51968z" clip-rule="nonzero"/></clipPath><g clip-path="url(#p.0)"><path fill="#ffffff" d="m0 0l960.0 0l0 275.51968l-960.0 0z" fill-rule="evenodd"/><path fill="#cc0000" d="m-0.006501837 -0.03777244l960.0123 0l0 275.59448l-960.0123 0z" fill-rule="evenodd"/><defs><radialGradient id="p.1" gradientUnits="userSpaceOnUse" gradientTransform="matrix(31.60359532605125 0.0 0.0 31.60359532605125 0.0 0.0)" spreadMethod="pad" cx="-2.0573093672801324E-4" cy="8.719156502856574" fx="-2.0573093672801324E-4" fy="8.719156502856574" r="31.603595733642578"><stop offset="0.0" stop-color="#660000"/><stop offset="0.5" stop-color="#660000" stop-opacity="0.0"/><stop offset="0.50000006" stop-color="#ffffff" stop-opacity="0.0"/><stop offset="1.0" stop-color="#ffffff" stop-opacity="0.0"/></radialGradient></defs><path fill="url(#p.1)" d="m-0.006501837 -0.03777244l960.0123 0l0 275.59448l-960.0123 0z" fill-rule="evenodd"/><g mask="url(#mask-p.2)"><use xlink:href="#p.2" transform="matrix(1.0 0.0 0.0 -1.0 0.0 378.69970843211115)"/></g><defs><mask id="mask-p.2" maskUnits="userSpaceOnUse" x="58.15650708661416" y="183.34985421605558" width="843.626818465577" height="111.17046983285348"><linearGradient gradientUnits="userSpaceOnUse" id="gradient-p.2" x1="64.15650709751209" y1="191.34684373522538" x2="64.15639939540344" y2="221.09888901118063"><stop offset="0%" stop-color="#ffffff" stop-opacity="1.0"/><stop offset="100%" stop-color="#ffffff" stop-opacity="0.0"/></linearGradient><rect fill="url(#gradient-p.2)" x="58.15650708661416" y="183.34985421605558" width="843.626818465577" height="111.17046983285348"/></mask></defs><g id="p.2"><g filter="url(#shadowFilter-p.3)"><use xlink:href="#p.3" transform="matrix(1.0 0.0 0.0 1.0 0.0 2.0)"/></g><defs><filter id="shadowFilter-p.3" filterUnits="userSpaceOnUse"><feGaussianBlur in="SourceAlpha" stdDeviation="2.0" result="blur"/><feComponentTransfer in="blur" color-interpolation-filters="sRGB"><feFuncR type="linear" slope="0" intercept="0.0"/><feFuncG type="linear" slope="0" intercept="0.0"/><feFuncB type="linear" slope="0" intercept="0.0"/><feFuncA type="linear" slope="0.5" intercept="0"/></feComponentTransfer></filter></defs><g id="p.3"><path fill="#ffffff" d="m71.328415 89.63487c-2.175621 0 -3.8355255 0.5258789 -4.979759 1.5776596c-1.1280823 1.0517731 -1.6921463 2.5775833 -1.6921463 4.5774307l0 84.92702c0 1.9998474 0.564064 3.52565 1.6921463 4.5774384c1.1442337 1.0369568 2.7557907 1.5554352 4.834717 1.5554352c3.754982 0 5.6324463 -2.0442963 5.6324463 -6.1328735l0 -38.64157l45.301292 0c1.6921463 0 3.0055695 -0.40737915 3.9402924 -1.2221375c0.9347153 -0.8295593 1.4020691 -2.0146484 1.4020691 -3.5552826c0 -1.4665527 -0.46735382 -2.6072083 -1.4020691 -3.4219666c-0.9347229 -0.8147583 -2.248146 -1.2221375 -3.9402924 -1.2221375l-45.301292 0l0 -33.597496l48.419678 0c1.6921539 0 2.9814072 -0.40737915 3.867775 -1.2221298c0.8863678 -0.8147507 1.3295441 -1.999855 1.3295441 -3.5552902c0 -1.4517441 -0.44317627 -2.5849915 -1.3295441 -3.3997498c-0.8863678 -0.82956696 -2.175621 -1.2443466 -3.867775 -1.2443466z" fill-rule="evenodd"/><path fill="#ffffff" d="m185.69145 98.923065c8.12233 0 14.262421 1.5702591 18.420273 4.710762c4.157852 3.140503 6.236786 7.7623825 6.236786 13.865631c0 6.281021 -2.0789337 10.991783 -6.236786 14.132286c-4.157852 3.140503 -10.297943 4.7107544 -18.420273 4.7107544l-27.485367 0l0 -37.419434zm-33.407883 -9.288193c-1.9822388 0 -3.5213013 0.48143768 -4.617157 1.4443359c-1.0797577 0.9628906 -1.6196289 2.3998184 -1.6196289 4.310791l0 85.59363c0 1.8220825 0.51568604 3.2590027 1.5471039 4.310791c1.0475159 1.0369568 2.5543213 1.5554352 4.520462 1.5554352c2.0789337 0 3.609909 -0.5184784 4.592987 -1.5554352c0.99916077 -1.0517883 1.4987488 -2.4887085 1.4987488 -4.310791l0 -35.775116l19.024612 0c4.8508453 0 8.758911 0.6592102 11.724182 1.9776306c2.9653015 1.3184204 5.5921783 3.9330444 7.8806 7.843857l16.17212 27.597946c0.80578613 1.3628693 1.7485504 2.4072266 2.828308 3.1331024c1.0958557 0.7258606 2.4818115 1.0888062 4.157852 1.0888062c1.6921539 0 2.9813995 -0.38516235 3.8677826 -1.1554718c0.8863678 -0.77030945 1.353714 -1.7702332 1.4020691 -2.999771c0.048339844 -1.229538 -0.3223114 -2.481308 -1.1119843 -3.7552795l-14.262421 -24.442627c-2.3690033 -3.9996948 -4.987808 -6.9105988 -7.856415 -8.732681c-1.2189178 -0.7742462 -2.5280457 -1.3839874 -3.9273987 -1.8292542l0 0c2.9785461 -0.53219604 5.721985 -1.3075256 8.230301 -2.3259888c5.253708 -2.147995 9.242355 -5.288498 11.965927 -9.421524c2.7235565 -4.1478424 4.085327 -9.04377 4.085327 -14.687798c0 -8.917847 -3.021698 -15.791412 -9.065094 -20.620682c-6.043396 -4.829277 -14.657242 -7.243904 -25.841553 -7.243904z" fill-rule="evenodd"/><path fill="#ffffff" d="m252.08018 89.63487c-2.1756287 0 -3.835556 0.5258789 -4.979767 1.5776596c-1.1280975 1.0517731 -1.6921539 2.5775833 -1.6921539 4.5774307l0 83.97153c0 1.9998474 0.5640564 3.5256653 1.6921539 4.5774384c1.1442108 1.0369568 2.8041382 1.5554352 4.979767 1.5554352l55.260788 0c1.6760559 0 2.9572449 -0.40737915 3.8435974 -1.2221222c0.90249634 -0.8295746 1.3537292 -2.014679 1.3537292 -3.5552979c0 -1.4517365 -0.4512329 -2.5849915 -1.3537292 -3.3997498c-0.88635254 -0.8295593 -2.1675415 -1.244339 -3.8435974 -1.244339l-50.063477 0l0 -34.68631l46.9451 0c1.6760254 0 2.9572449 -0.40737915 3.8435974 -1.2221375c0.90249634 -0.8147583 1.3537292 -1.9998474 1.3537292 -3.5552826c0 -1.5406342 -0.4512329 -2.696106 -1.3537292 -3.4664154c-0.88635254 -0.77030945 -2.167572 -1.1554718 -3.8435974 -1.1554718l-46.9451 0l0 -33.33085l50.063477 0c1.6760559 0 2.9572449 -0.40737915 3.8435974 -1.2221298c0.90249634 -0.8147507 1.3537292 -1.999855 1.3537292 -3.5552902c0 -1.4517441 -0.4512329 -2.5849915 -1.3537292 -3.3997498c-0.88635254 -0.82956696 -2.1675415 -1.2443466 -3.8435974 -1.2443466z" fill-rule="evenodd"/><path fill="#ffffff" d="m371.35104 102.745l22.706635 49.151894l-45.72754 0l22.706635 -49.151894zm-0.14505005 -14.06562c-1.4987488 0 -2.8685913 0.39256287 -4.109497 1.1776886c-1.2247925 0.7703171 -2.280365 2.066513 -3.166748 3.8886032l-40.853333 85.460304c-0.69299316 1.4517517 -0.96694946 2.7479553 -0.8218994 3.8885956c0.14501953 1.1406708 0.684906 2.051712 1.6196289 2.733139c0.95080566 0.681427 2.2159119 1.0221405 3.795227 1.0221405c1.595459 0 2.884735 -0.40737915 3.8677979 -1.2221375c0.999176 -0.8295593 1.941925 -2.1035461 2.828308 -3.82193l9.500488 -20.487366l54.528656 0l9.627747 20.487366c0.69296265 1.6295166 1.5793457 2.8812714 2.6590881 3.7552795c1.0958557 0.8591919 2.5382385 1.2887878 4.3270874 1.2887878c1.5793152 0 2.8121643 -0.3184967 3.6985474 -0.9554901c0.9024658 -0.63697815 1.426239 -1.5480194 1.5712891 -2.7331238c0.14501953 -1.1851044 -0.17727661 -2.5035248 -0.96694946 -3.9552612l-40.998383 -85.460304c-0.78967285 -1.8220901 -1.8049927 -3.1182861 -3.0458984 -3.8886032c-1.2247925 -0.78512573 -2.5784912 -1.1776886 -4.061157 -1.1776886z" fill-rule="evenodd"/><path fill="#ffffff" d="m444.25793 88.67938c-1.9661255 0 -3.4729614 0.4814453 -4.5204773 1.4443359c-1.0314026 0.948082 -1.5470886 2.3850098 -1.5470886 4.310791l0 86.54912c0 1.8220825 0.51568604 3.2590027 1.5470886 4.310791c1.0475464 1.0369568 2.5543518 1.5554352 4.5204773 1.5554352c2.0789185 0 3.6099243 -0.5184784 4.5929565 -1.5554352c0.999176 -1.0517883 1.4987793 -2.4887085 1.4987793 -4.310791l0 -40.41922l0.3142395 0l50.788696 42.730164c1.2892761 1.1850891 2.4496155 2.0739136 3.481018 2.6664581c1.0475159 0.59254456 2.3125916 0.88882446 3.795227 0.88882446c1.8855591 0 3.2956848 -0.42959595 4.230377 -1.2887878c0.9347534 -0.87402344 1.3537598 -1.9702301 1.257019 -3.2886505c-0.09667969 -1.3184204 -0.88635254 -2.614624 -2.368988 -3.8885956l-49.41333 -41.973557l47.04431 -40.06478c1.1764526 -1.0962143 1.8613586 -2.2368774 2.0547485 -3.4219666c0.20950317 -1.1850967 -0.10473633 -2.185028 -0.942749 -2.9997787c-0.8380127 -0.82956696 -2.1997986 -1.2443542 -4.0853577 -1.2443542c-1.3859253 0 -2.6752014 0.25183868 -3.8677673 0.7555008c-1.1925659 0.5036621 -2.3770752 1.3036041 -3.5534973 2.3998184l-48.41971 41.508026l-0.3142395 0l0 -38.90822c0 -1.9257812 -0.5237732 -3.362709 -1.5712891 -4.310791c-1.0314026 -0.9628906 -2.538208 -1.4443359 -4.520447 -1.4443359zm76.78473 0c-1.5793457 0 -2.8685913 0.4147873 -3.8677979 1.2443542c-0.9830322 0.8147507 -1.4987183 1.8368988 -1.5470581 3.0664368c-0.04840088 1.229538 0.37060547 2.4368591 1.257019 3.6219559l34.616516 43.84252l0 40.395645c0 1.9109802 0.5157471 3.392334 1.5471191 4.4441223c1.0475464 1.0369568 2.562439 1.5554352 4.5446777 1.5554352c4.061157 0 6.091736 -1.9998474 6.091736 -5.9995575l0 -40.217484l34.592346 -43.88736c0.99920654 -1.3628616 1.4746094 -2.6590652 1.4262695 -3.8886032c-0.048339844 -1.229538 -0.5237427 -2.2294617 -1.4262695 -2.9997787c-0.88635254 -0.78512573 -2.1192017 -1.1776886 -3.6985474 -1.1776886c-1.3859253 0 -2.5784912 0.27405548 -3.5776978 0.82216644c-0.9830322 0.54810333 -2.022522 1.5035858 -3.1183472 2.8664474l-30.060486 38.173325l0 0l-30.083374 -38.173325c-0.8864136 -1.2739792 -1.8775024 -2.2072449 -2.9733887 -2.7997894c-1.0797119 -0.59254456 -2.3206787 -0.88882446 -3.7227173 -0.88882446z" fill-rule="evenodd"/><path fill="#ffffff" d="m623.8317 89.63487c-2.1755981 0 -3.8355103 0.5258789 -4.9797363 1.5776596c-1.1281128 1.0517731 -1.6921387 2.5775833 -1.6921387 4.5774307l0 84.92702c0 1.9998474 0.5640259 3.52565 1.6921387 4.5774384c1.1442261 1.0369568 2.7557983 1.5554352 4.834717 1.5554352c3.7549438 0 5.6324463 -2.0442963 5.6324463 -6.1328735l0 -38.64157l45.30127 0c1.6921387 0 3.0056152 -0.40737915 3.9403076 -1.2221375c0.9347534 -0.8295593 1.4020996 -2.0146484 1.4020996 -3.5552826c0 -1.4665527 -0.4673462 -2.6072083 -1.4020996 -3.4219666c-0.9346924 -0.8147583 -2.248169 -1.2221375 -3.9403076 -1.2221375l-45.30127 0l0 -33.597496l48.419678 0c1.6921387 0 2.9813843 -0.40737915 3.8677979 -1.2221298c0.88635254 -0.8147507 1.3295288 -1.999855 1.3295288 -3.5552902c0 -1.4517441 -0.44317627 -2.5849915 -1.3295288 -3.3997498c-0.8864136 -0.82956696 -2.1756592 -1.2443466 -3.8677979 -1.2443466z" fill-rule="evenodd"/><path fill="#ffffff" d="m704.6177 88.968254c-1.9661255 0 -3.4729004 0.5036621 -4.520447 1.510994c-1.0314331 0.9925232 -1.5471191 2.4442673 -1.5471191 4.3552322l0 85.19366c0 1.8220825 0.53985596 3.259018 1.6196289 4.310791c1.0958862 1.0369568 2.6349487 1.5554352 4.6171875 1.5554352l54.656433 0c1.7727051 0 3.1506348 -0.42959595 4.133667 -1.2887878c0.99920654 -0.8740082 1.4987793 -2.0813293 1.4987793 -3.6219482c0 -1.5554504 -0.49957275 -2.7627716 -1.4987793 -3.6219482c-0.9830322 -0.8591919 -2.360962 -1.2888031 -4.133667 -1.2888031l-48.733948 0l0 -81.238396c0 -1.910965 -0.5237427 -3.362709 -1.5712891 -4.3552322c-1.0313721 -1.0073318 -2.538208 -1.510994 -4.520447 -1.510994z" fill-rule="evenodd"/><path fill="#ffffff" d="m785.2654 88.67938c-1.9661255 0 -3.4729004 0.50366974 -4.520447 1.5110016c-1.0314331 1.0073318 -1.5471191 2.466484 -1.5471191 4.377449l0 86.415794c0 1.8220825 0.51568604 3.2590027 1.5471191 4.310791c1.0474854 1.0369568 2.5543213 1.5554352 4.520447 1.5554352c2.0789185 0 3.6099243 -0.5184784 4.5929565 -1.5554352c0.99920654 -1.0517883 1.4987793 -2.4887085 1.4987793 -4.310791l0 -86.415794c0 -1.910965 -0.5237427 -3.3701172 -1.5712891 -4.377449c-1.0314331 -1.0073318 -2.538208 -1.5110016 -4.520447 -1.5110016z" fill-rule="evenodd"/><path fill="#ffffff" d="m817.65814 88.67938c-1.482605 0 -2.7476807 0.4147873 -3.795227 1.2443542c-1.0314331 0.8147507 -1.6035156 1.814682 -1.7163086 2.9997787c-0.09674072 1.1850967 0.40289307 2.459076 1.4987183 3.8219376l32.16449 39.927658l-34.24341 42.39955c-1.0958252 1.1850891 -1.5712891 2.3701935 -1.4262085 3.5552826c0.16113281 1.1702881 0.7574463 2.1702118 1.7888184 2.999771c1.0475464 0.8147583 2.4093018 1.2221375 4.085327 1.2221375c1.1925659 0 2.3287354 -0.2962799 3.4085083 -0.88882446c1.0958252 -0.59254456 2.1433716 -1.5258026 3.142517 -2.7997894l30.13324 -37.830933l30.1557 37.830933c1.0958862 1.2739868 2.159546 2.2072449 3.190918 2.7997894c1.0475464 0.59254456 2.2159424 0.88882446 3.505188 0.88882446c1.6760254 0 3.0055542 -0.40737915 3.9885864 -1.2221375c0.99920654 -0.8295593 1.5712891 -1.829483 1.7163696 -2.999771c0.14501953 -1.1851044 -0.27398682 -2.3701935 -1.257019 -3.5552826l-34.24341 -42.39955l32.16443 -39.927658c1.079773 -1.3628616 1.5712891 -2.6590652 1.4746094 -3.8886032c-0.09667969 -1.229538 -0.6687622 -2.2294617 -1.7163086 -2.9997787c-1.0313721 -0.78512573 -2.336792 -1.1776886 -3.9161377 -1.1776886c-1.3859863 0 -2.5785522 0.27405548 -3.5776978 0.82216644c-0.9830322 0.54810333 -1.9741211 1.5035858 -2.9733276 2.8664474l-28.361023 35.931625l-28.51941 -35.931625c-1.079773 -1.3628616 -2.1192627 -2.318344 -3.1184082 -2.8664474c-0.9830322 -0.54811096 -2.1675415 -0.82216644 -3.5535278 -0.82216644z" fill-rule="evenodd"/><path stroke="#ff0000" stroke-width="1.0" stroke-linejoin="round" stroke-linecap="butt" d="m71.328415 89.63487c-2.175621 0 -3.8355255 0.5258789 -4.979759 1.5776596c-1.1280823 1.0517731 -1.6921463 2.5775833 -1.6921463 4.5774307l0 84.92702c0 1.9998474 0.564064 3.52565 1.6921463 4.5774384c1.1442337 1.0369568 2.7557907 1.5554352 4.834717 1.5554352c3.754982 0 5.6324463 -2.0442963 5.6324463 -6.1328735l0 -38.64157l45.301292 0c1.6921463 0 3.0055695 -0.40737915 3.9402924 -1.2221375c0.9347153 -0.8295593 1.4020691 -2.0146484 1.4020691 -3.5552826c0 -1.4665527 -0.46735382 -2.6072083 -1.4020691 -3.4219666c-0.9347229 -0.8147583 -2.248146 -1.2221375 -3.9402924 -1.2221375l-45.301292 0l0 -33.597496l48.419678 0c1.6921539 0 2.9814072 -0.40737915 3.867775 -1.2221298c0.8863678 -0.8147507 1.3295441 -1.999855 1.3295441 -3.5552902c0 -1.4517441 -0.44317627 -2.5849915 -1.3295441 -3.3997498c-0.8863678 -0.82956696 -2.175621 -1.2443466 -3.867775 -1.2443466z" fill-rule="evenodd"/><path stroke="#ff0000" stroke-width="1.0" stroke-linejoin="round" stroke-linecap="butt" d="m185.69145 98.923065c8.12233 0 14.262421 1.5702591 18.420273 4.710762c4.157852 3.140503 6.236786 7.7623825 6.236786 13.865631c0 6.281021 -2.0789337 10.991783 -6.236786 14.132286c-4.157852 3.140503 -10.297943 4.7107544 -18.420273 4.7107544l-27.485367 0l0 -37.419434zm-33.407883 -9.288193c-1.9822388 0 -3.5213013 0.48143768 -4.617157 1.4443359c-1.0797577 0.9628906 -1.6196289 2.3998184 -1.6196289 4.310791l0 85.59363c0 1.8220825 0.51568604 3.2590027 1.5471039 4.310791c1.0475159 1.0369568 2.5543213 1.5554352 4.520462 1.5554352c2.0789337 0 3.609909 -0.5184784 4.592987 -1.5554352c0.99916077 -1.0517883 1.4987488 -2.4887085 1.4987488 -4.310791l0 -35.775116l19.024612 0c4.8508453 0 8.758911 0.6592102 11.724182 1.9776306c2.9653015 1.3184204 5.5921783 3.9330444 7.8806 7.843857l16.17212 27.597946c0.80578613 1.3628693 1.7485504 2.4072266 2.828308 3.1331024c1.0958557 0.7258606 2.4818115 1.0888062 4.157852 1.0888062c1.6921539 0 2.9813995 -0.38516235 3.8677826 -1.1554718c0.8863678 -0.77030945 1.353714 -1.7702332 1.4020691 -2.999771c0.048339844 -1.229538 -0.3223114 -2.481308 -1.1119843 -3.7552795l-14.262421 -24.442627c-2.3690033 -3.9996948 -4.987808 -6.9105988 -7.856415 -8.732681c-1.2189178 -0.7742462 -2.5280457 -1.3839874 -3.9273987 -1.8292542l0 0c2.9785461 -0.53219604 5.721985 -1.3075256 8.230301 -2.3259888c5.253708 -2.147995 9.242355 -5.288498 11.965927 -9.421524c2.7235565 -4.1478424 4.085327 -9.04377 4.085327 -14.687798c0 -8.917847 -3.021698 -15.791412 -9.065094 -20.620682c-6.043396 -4.829277 -14.657242 -7.243904 -25.841553 -7.243904z" fill-rule="evenodd"/><path stroke="#ff0000" stroke-width="1.0" stroke-linejoin="round" stroke-linecap="butt" d="m252.08018 89.63487c-2.1756287 0 -3.835556 0.5258789 -4.979767 1.5776596c-1.1280975 1.0517731 -1.6921539 2.5775833 -1.6921539 4.5774307l0 83.97153c0 1.9998474 0.5640564 3.5256653 1.6921539 4.5774384c1.1442108 1.0369568 2.8041382 1.5554352 4.979767 1.5554352l55.260788 0c1.6760559 0 2.9572449 -0.40737915 3.8435974 -1.2221222c0.90249634 -0.8295746 1.3537292 -2.014679 1.3537292 -3.5552979c0 -1.4517365 -0.4512329 -2.5849915 -1.3537292 -3.3997498c-0.88635254 -0.8295593 -2.1675415 -1.244339 -3.8435974 -1.244339l-50.063477 0l0 -34.68631l46.9451 0c1.6760254 0 2.9572449 -0.40737915 3.8435974 -1.2221375c0.90249634 -0.8147583 1.3537292 -1.9998474 1.3537292 -3.5552826c0 -1.5406342 -0.4512329 -2.696106 -1.3537292 -3.4664154c-0.88635254 -0.77030945 -2.167572 -1.1554718 -3.8435974 -1.1554718l-46.9451 0l0 -33.33085l50.063477 0c1.6760559 0 2.9572449 -0.40737915 3.8435974 -1.2221298c0.90249634 -0.8147507 1.3537292 -1.999855 1.3537292 -3.5552902c0 -1.4517441 -0.4512329 -2.5849915 -1.3537292 -3.3997498c-0.88635254 -0.82956696 -2.1675415 -1.2443466 -3.8435974 -1.2443466z" fill-rule="evenodd"/><path stroke="#ff0000" stroke-width="1.0" stroke-linejoin="round" stroke-linecap="butt" d="m371.35104 102.745l22.706635 49.151894l-45.72754 0l22.706635 -49.151894zm-0.14505005 -14.06562c-1.4987488 0 -2.8685913 0.39256287 -4.109497 1.1776886c-1.2247925 0.7703171 -2.280365 2.066513 -3.166748 3.8886032l-40.853333 85.460304c-0.69299316 1.4517517 -0.96694946 2.7479553 -0.8218994 3.8885956c0.14501953 1.1406708 0.684906 2.051712 1.6196289 2.733139c0.95080566 0.681427 2.2159119 1.0221405 3.795227 1.0221405c1.595459 0 2.884735 -0.40737915 3.8677979 -1.2221375c0.999176 -0.8295593 1.941925 -2.1035461 2.828308 -3.82193l9.500488 -20.487366l54.528656 0l9.627747 20.487366c0.69296265 1.6295166 1.5793457 2.8812714 2.6590881 3.7552795c1.0958557 0.8591919 2.5382385 1.2887878 4.3270874 1.2887878c1.5793152 0 2.8121643 -0.3184967 3.6985474 -0.9554901c0.9024658 -0.63697815 1.426239 -1.5480194 1.5712891 -2.7331238c0.14501953 -1.1851044 -0.17727661 -2.5035248 -0.96694946 -3.9552612l-40.998383 -85.460304c-0.78967285 -1.8220901 -1.8049927 -3.1182861 -3.0458984 -3.8886032c-1.2247925 -0.78512573 -2.5784912 -1.1776886 -4.061157 -1.1776886z" fill-rule="evenodd"/><path stroke="#ff0000" stroke-width="1.0" stroke-linejoin="round" stroke-linecap="butt" d="m444.25793 88.67938c-1.9661255 0 -3.4729614 0.4814453 -4.5204773 1.4443359c-1.0314026 0.948082 -1.5470886 2.3850098 -1.5470886 4.310791l0 86.54912c0 1.8220825 0.51568604 3.2590027 1.5470886 4.310791c1.0475464 1.0369568 2.5543518 1.5554352 4.5204773 1.5554352c2.0789185 0 3.6099243 -0.5184784 4.5929565 -1.5554352c0.999176 -1.0517883 1.4987793 -2.4887085 1.4987793 -4.310791l0 -40.41922l0.3142395 0l50.788696 42.730164c1.2892761 1.1850891 2.4496155 2.0739136 3.481018 2.6664581c1.0475159 0.59254456 2.3125916 0.88882446 3.795227 0.88882446c1.8855591 0 3.2956848 -0.42959595 4.230377 -1.2887878c0.9347534 -0.87402344 1.3537598 -1.9702301 1.257019 -3.2886505c-0.09667969 -1.3184204 -0.88635254 -2.614624 -2.368988 -3.8885956l-49.41333 -41.973557l47.04431 -40.06478c1.1764526 -1.0962143 1.8613586 -2.2368774 2.0547485 -3.4219666c0.20950317 -1.1850967 -0.10473633 -2.185028 -0.942749 -2.9997787c-0.8380127 -0.82956696 -2.1997986 -1.2443542 -4.0853577 -1.2443542c-1.3859253 0 -2.6752014 0.25183868 -3.8677673 0.7555008c-1.1925659 0.5036621 -2.3770752 1.3036041 -3.5534973 2.3998184l-48.41971 41.508026l-0.3142395 0l0 -38.90822c0 -1.9257812 -0.5237732 -3.362709 -1.5712891 -4.310791c-1.0314026 -0.9628906 -2.538208 -1.4443359 -4.520447 -1.4443359zm76.78473 0c-1.5793457 0 -2.8685913 0.4147873 -3.8677979 1.2443542c-0.9830322 0.8147507 -1.4987183 1.8368988 -1.5470581 3.0664368c-0.04840088 1.229538 0.37060547 2.4368591 1.257019 3.6219559l34.616516 43.84252l0 40.395645c0 1.9109802 0.5157471 3.392334 1.5471191 4.4441223c1.0475464 1.0369568 2.562439 1.5554352 4.5446777 1.5554352c4.061157 0 6.091736 -1.9998474 6.091736 -5.9995575l0 -40.217484l34.592346 -43.88736c0.99920654 -1.3628616 1.4746094 -2.6590652 1.4262695 -3.8886032c-0.048339844 -1.229538 -0.5237427 -2.2294617 -1.4262695 -2.9997787c-0.88635254 -0.78512573 -2.1192017 -1.1776886 -3.6985474 -1.1776886c-1.3859253 0 -2.5784912 0.27405548 -3.5776978 0.82216644c-0.9830322 0.54810333 -2.022522 1.5035858 -3.1183472 2.8664474l-30.060486 38.173325l0 0l-30.083374 -38.173325c-0.8864136 -1.2739792 -1.8775024 -2.2072449 -2.9733887 -2.7997894c-1.0797119 -0.59254456 -2.3206787 -0.88882446 -3.7227173 -0.88882446z" fill-rule="evenodd"/><path stroke="#ff0000" stroke-width="1.0" stroke-linejoin="round" stroke-linecap="butt" d="m623.8317 89.63487c-2.1755981 0 -3.8355103 0.5258789 -4.9797363 1.5776596c-1.1281128 1.0517731 -1.6921387 2.5775833 -1.6921387 4.5774307l0 84.92702c0 1.9998474 0.5640259 3.52565 1.6921387 4.5774384c1.1442261 1.0369568 2.7557983 1.5554352 4.834717 1.5554352c3.7549438 0 5.6324463 -2.0442963 5.6324463 -6.1328735l0 -38.64157l45.30127 0c1.6921387 0 3.0056152 -0.40737915 3.9403076 -1.2221375c0.9347534 -0.8295593 1.4020996 -2.0146484 1.4020996 -3.5552826c0 -1.4665527 -0.4673462 -2.6072083 -1.4020996 -3.4219666c-0.9346924 -0.8147583 -2.248169 -1.2221375 -3.9403076 -1.2221375l-45.30127 0l0 -33.597496l48.419678 0c1.6921387 0 2.9813843 -0.40737915 3.8677979 -1.2221298c0.88635254 -0.8147507 1.3295288 -1.999855 1.3295288 -3.5552902c0 -1.4517441 -0.44317627 -2.5849915 -1.3295288 -3.3997498c-0.8864136 -0.82956696 -2.1756592 -1.2443466 -3.8677979 -1.2443466z" fill-rule="evenodd"/><path stroke="#ff0000" stroke-width="1.0" stroke-linejoin="round" stroke-linecap="butt" d="m704.6177 88.968254c-1.9661255 0 -3.4729004 0.5036621 -4.520447 1.510994c-1.0314331 0.9925232 -1.5471191 2.4442673 -1.5471191 4.3552322l0 85.19366c0 1.8220825 0.53985596 3.259018 1.6196289 4.310791c1.0958862 1.0369568 2.6349487 1.5554352 4.6171875 1.5554352l54.656433 0c1.7727051 0 3.1506348 -0.42959595 4.133667 -1.2887878c0.99920654 -0.8740082 1.4987793 -2.0813293 1.4987793 -3.6219482c0 -1.5554504 -0.49957275 -2.7627716 -1.4987793 -3.6219482c-0.9830322 -0.8591919 -2.360962 -1.2888031 -4.133667 -1.2888031l-48.733948 0l0 -81.238396c0 -1.910965 -0.5237427 -3.362709 -1.5712891 -4.3552322c-1.0313721 -1.0073318 -2.538208 -1.510994 -4.520447 -1.510994z" fill-rule="evenodd"/><path stroke="#ff0000" stroke-width="1.0" stroke-linejoin="round" stroke-linecap="butt" d="m785.2654 88.67938c-1.9661255 0 -3.4729004 0.50366974 -4.520447 1.5110016c-1.0314331 1.0073318 -1.5471191 2.466484 -1.5471191 4.377449l0 86.415794c0 1.8220825 0.51568604 3.2590027 1.5471191 4.310791c1.0474854 1.0369568 2.5543213 1.5554352 4.520447 1.5554352c2.0789185 0 3.6099243 -0.5184784 4.5929565 -1.5554352c0.99920654 -1.0517883 1.4987793 -2.4887085 1.4987793 -4.310791l0 -86.415794c0 -1.910965 -0.5237427 -3.3701172 -1.5712891 -4.377449c-1.0314331 -1.0073318 -2.538208 -1.5110016 -4.520447 -1.5110016z" fill-rule="evenodd"/><path stroke="#ff0000" stroke-width="1.0" stroke-linejoin="round" stroke-linecap="butt" d="m817.65814 88.67938c-1.482605 0 -2.7476807 0.4147873 -3.795227 1.2443542c-1.0314331 0.8147507 -1.6035156 1.814682 -1.7163086 2.9997787c-0.09674072 1.1850967 0.40289307 2.459076 1.4987183 3.8219376l32.16449 39.927658l-34.24341 42.39955c-1.0958252 1.1850891 -1.5712891 2.3701935 -1.4262085 3.5552826c0.16113281 1.1702881 0.7574463 2.1702118 1.7888184 2.999771c1.0475464 0.8147583 2.4093018 1.2221375 4.085327 1.2221375c1.1925659 0 2.3287354 -0.2962799 3.4085083 -0.88882446c1.0958252 -0.59254456 2.1433716 -1.5258026 3.142517 -2.7997894l30.13324 -37.830933l30.1557 37.830933c1.0958862 1.2739868 2.159546 2.2072449 3.190918 2.7997894c1.0475464 0.59254456 2.2159424 0.88882446 3.505188 0.88882446c1.6760254 0 3.0055542 -0.40737915 3.9885864 -1.2221375c0.99920654 -0.8295593 1.5712891 -1.829483 1.7163696 -2.999771c0.14501953 -1.1851044 -0.27398682 -2.3701935 -1.257019 -3.5552826l-34.24341 -42.39955l32.16443 -39.927658c1.079773 -1.3628616 1.5712891 -2.6590652 1.4746094 -3.8886032c-0.09667969 -1.229538 -0.6687622 -2.2294617 -1.7163086 -2.9997787c-1.0313721 -0.78512573 -2.336792 -1.1776886 -3.9161377 -1.1776886c-1.3859863 0 -2.5785522 0.27405548 -3.5776978 0.82216644c-0.9830322 0.54810333 -1.9741211 1.5035858 -2.9733276 2.8664474l-28.361023 35.931625l-28.51941 -35.931625c-1.079773 -1.3628616 -2.1192627 -2.318344 -3.1184082 -2.8664474c-0.9830322 -0.54811096 -2.1675415 -0.82216644 -3.5535278 -0.82216644z" fill-rule="evenodd"/></g></g></g></svg>
